<svg xmlns="http://www.w3.org/2000/svg" width="64" height="64" viewBox="0 0 64 64" role="img" aria-label="CLOCK"><path fill="#8b949e" d="M51.7037037037037 20.56296296296297Q48.62222222222223 15.348148148148155 43.40740740740741 12.296296296296301Q38.1925925925926 9.244444444444447 32.0 9.244444444444447Q25.807407407407407 9.244444444444447 20.59259259259259 12.296296296296301Q15.377777777777778 15.348148148148155 12.296296296296296 20.56296296296297Q9.244444444444444 25.777777777777782 9.244444444444444 32.00000000000001Q9.244444444444444 38.22222222222223 12.296296296296296 43.437037037037044Q15.377777777777778 48.65185185185186 20.59259259259259 51.70370370370371Q25.807407407407407 54.75555555555556 32.0 54.75555555555556Q38.1925925925926 54.75555555555556 43.40740740740741 51.70370370370371Q48.62222222222223 48.65185185185186 51.7037037037037 43.437037037037044Q54.75555555555556 38.22222222222223 54.75555555555556 32.00000000000001Q54.75555555555556 25.777777777777782 51.7037037037037 20.56296296296297ZM21.125925925925927 6.2222222222222285Q26.311111111111114 4.000000000000007 32.0 4.000000000000007Q37.68888888888889 4.000000000000007 42.87407407407407 6.2222222222222285Q48.08888888888889 8.474074074074075 51.82222222222222 12.207407407407409Q55.55555555555556 15.940740740740743 57.77777777777778 21.12592592592593Q60.0 26.311111111111117 60.0 32.00000000000001Q60.0 37.6888888888889 57.77777777777778 42.87407407407408Q55.55555555555556 48.059259259259264 51.82222222222222 51.7925925925926Q48.08888888888889 55.52592592592593 42.87407407407407 57.777777777777786Q37.68888888888889 60.00000000000001 32.0 60.00000000000001Q26.311111111111114 60.00000000000001 21.125925925925927 57.777777777777786Q15.911111111111111 55.52592592592593 12.177777777777777 51.7925925925926Q8.444444444444445 48.059259259259264 6.222222222222222 42.87407407407408Q4.0 37.6888888888889 4.0 32.00000000000001Q4.0 26.311111111111117 6.222222222222222 21.12592592592593Q8.444444444444445 15.940740740740743 12.177777777777777 12.207407407407409Q15.911111111111111 8.474074074074075 21.125925925925927 6.2222222222222285ZM29.392592592592592 17.125925925925934Q29.362962962962964 16.029629629629632 30.133333333333333 15.259259259259263Q30.903703703703705 14.488888888888894 32.0 14.488888888888894Q33.0962962962963 14.488888888888894 33.866666666666674 15.259259259259263Q34.63703703703704 16.029629629629632 34.63703703703704 17.125925925925934V30.60740740740741L43.970370370370375 36.800000000000004Q44.88888888888889 37.3925925925926 45.0962962962963 38.45925925925927Q45.303703703703704 39.52592592592593 44.71111111111111 40.44444444444445Q44.11851851851852 41.36296296296297 43.05185185185185 41.57037037037038Q41.98518518518519 41.777777777777786 41.06666666666667 41.18518518518519L30.54814814814815 34.1925925925926Q29.392592592592592 33.3925925925926 29.392592592592592 32.0Z"/></svg>
