<svg xmlns="http://www.w3.org/2000/svg" width="64" height="64" viewBox="0 0 64 64" role="img" aria-label="PACKAGE"><path fill="#8b949e" d="M35.123505976095615 4.836653386454188 53.864541832669325 15.713147410358573Q55.31474103585657 16.549800796812754 56.15139442231076 18.000000000000004Q56.98804780876494 19.450199203187253 56.98804780876494 21.123505976095622V42.876494023904385Q56.98804780876494 44.57768924302789 56.15139442231076 46.027888446215144Q55.31474103585657 47.4780876494024 53.864541832669325 48.28685258964144L35.123505976095615 59.16334661354582Q33.67330677290837 60.00000000000001 32.0 60.00000000000001Q30.298804780876495 60.00000000000001 28.87649402390438 59.16334661354582L24.191235059760956 56.430278884462155Q19.50597609561753 53.72509960159363 14.820717131474105 51.019920318725106L10.135458167330679 48.28685258964144Q8.713147410358566 47.45019920318725 7.848605577689244 46.027888446215144Q7.011952191235061 44.57768924302789 7.011952191235061 42.876494023904385V21.123505976095622Q7.011952191235061 19.450199203187253 7.848605577689244 18.000000000000004Q8.685258964143427 16.549800796812754 10.135458167330679 15.713147410358573L28.87649402390438 4.836653386454188Q30.326693227091635 4.000000000000007 32.0 4.000000000000007Q33.67330677290837 4.000000000000007 35.123505976095615 4.836653386454188ZM31.55378486055777 9.466135458167336 15.01593625498008 19.059760956175303 32.0 28.904382470119526 48.984063745019924 19.059760956175303 32.44621513944223 9.466135458167336Q32.25099601593625 9.354581673306775 32.0 9.354581673306775Q31.749003984063744 9.354581673306775 31.55378486055777 9.466135458167336ZM12.366533864541832 23.717131474103592V42.876494023904385Q12.366533864541832 43.3784860557769 12.812749003984065 43.65737051792829L29.322709163346612 53.22310756972112V33.53386454183267ZM34.677290836653384 53.22310756972112 51.18725099601593 43.65737051792829Q51.633466135458164 43.40637450199203 51.633466135458164 42.876494023904385V23.717131474103592L34.677290836653384 33.53386454183267Z"/></svg>
