<svg xmlns="http://www.w3.org/2000/svg" width="64" height="64" viewBox="0 0 64 64" role="img" aria-label="WARN"><path fill="#8b949e" d="M31.97405456501595 7.519706797513251Q33.128539356588036 7.490104623370378 34.13501327744575 8.082148106227859Q35.14148719830347 8.67419158908534 35.76313285530382 9.680665509943054L59.356065647174425 49.91002017010885Q60.628959135318006 52.070978882538654 59.3856678213173 54.2911419432542Q58.823226512602695 55.297615864111926 57.81675259174497 55.88965934696941Q56.81027867088726 56.48170282982689 55.59658953102942 56.48170282982689H8.381121773145356Q7.197034807430395 56.48170282982689 6.190560886572678 55.88965934696941Q5.184086965714961 55.297615864111926 4.5920434828574805 54.2911419432542Q4.0 53.255065848253615 4.0 52.070978882538654Q4.0 50.88689191682369 4.5920434828574805 49.91002017010885L28.214578448870952 9.680665509943054Q28.806621931728433 8.67419158908534 29.81309585258615 8.082148106227859Q30.819569773443867 7.490104623370378 31.97405456501595 7.519706797513251ZM29.369063240443037 24.126526491665576V36.38182658681542Q29.339461066300164 37.44750485595889 30.10911759401489 38.21716138367361Q30.878774121729613 38.986817911388336 31.97405456501595 38.986817911388336Q33.06933500830229 38.986817911388336 33.83899153601701 38.21716138367361Q34.608648063731735 37.44750485595889 34.608648063731735 36.38182658681542V24.126526491665576Q34.608648063731735 23.031246048379238 33.83899153601701 22.261589520664515Q33.06933500830229 21.49193299294979 31.97405456501595 21.49193299294979Q30.878774121729613 21.49193299294979 30.10911759401489 22.261589520664515Q29.339461066300164 23.031246048379238 29.369063240443037 24.126526491665576ZM35.46711111387509 45.9729310091066Q35.43750893973221 44.4928223019629 34.431035018874496 43.48634838110519Q33.42456109801678 42.47987446024747 31.974054565015955 42.47987446024747Q30.523548032015125 42.47987446024747 29.517074111157406 43.48634838110519Q28.51060019029969 44.4928223019629 28.480998016156818 45.9729310091066Q28.51060019029969 47.423437542107436 29.517074111157406 48.459513637108024Q30.523548032015125 49.49558973210861 31.974054565015955 49.49558973210861Q33.42456109801678 49.49558973210861 34.431035018874496 48.459513637108024Q35.43750893973221 47.423437542107436 35.46711111387509 45.9729310091066Z"/></svg>
